<svg width="449" height="449" viewBox="0 0 449 449" fill="none" xmlns="http://www.w3.org/2000/svg">
<path d="M316.613 120.407L244.781 120.086L266.312 140.263C278.493 151.678 281.228 169.968 272.921 184.447L224.395 269.022L229.748 278.908C237.831 293.835 254.786 301.647 271.384 298.091L285.384 293.591L300.424 289.09L357.107 190.905C375.149 159.653 352.699 120.569 316.613 120.407Z" stroke="black" stroke-width="20"/>
<path d="M91.5699 190.563L127.207 252.932L133.916 224.197C137.711 207.941 152.183 196.427 168.876 196.382L266.383 196.12L272.269 186.54C281.154 172.077 279.441 153.487 268.063 140.891L257.166 131.017L245.748 120.242L132.376 120.246C96.2898 120.247 73.6666 159.231 91.5699 190.563Z" stroke="black" stroke-width="20"/>
<path d="M264.812 350.393L300.383 289.053L272.974 297.265C256.993 302.053 239.673 295.276 231.328 280.829L182.383 196.102H168.764C152.119 196.102 137.644 207.513 133.759 223.699L126.883 252.344L183.451 350.317C201.522 381.615 246.683 381.657 264.812 350.393Z" stroke="black" stroke-width="20"/>
</svg>
